<?xml version="1.0" encoding="UTF-8"?>
<!DOCTYPE svg PUBLIC "-//W3C//DTD SVG 1.1//EN" "http://www.w3.org/Graphics/SVG/1.1/DTD/svg11.dtd">
<!-- Creator: CorelDRAW 2018 (64-Bit) -->
<svg xmlns="http://www.w3.org/2000/svg" xml:space="preserve" width="268px" height="80px" version="1.1" style="shape-rendering:geometricPrecision; text-rendering:geometricPrecision; image-rendering:optimizeQuality; fill-rule:evenodd; clip-rule:evenodd"
viewBox="0 0 259.637 77.421"
 xmlns:xlink="http://www.w3.org/1999/xlink">
 <defs>
  <style type="text/css">
   <![CDATA[
    .fil1 {fill:#C4854E}
    .fil0 {fill:#C4854E;fill-rule:nonzero}
   ]]>
  </style>
 </defs>
 <g id="Layer_x0020_1">
  <metadata id="CorelCorpID_0Corel-Layer"/>
  <path class="fil0" d="M95.97 31.63c0.599,0.641 0.877,1.165 0.834,1.571 -0.043,0.407 -0.288,0.727 -0.737,0.962 -0.449,0.236 -1.059,0.396 -1.828,0.481 -0.77,0.086 -1.561,0.129 -2.373,0.129l-2.437 0c0.085,3.677 0.288,7.439 0.609,11.287 0.321,3.848 0.481,7.482 0.481,10.903 0,0.726 -0.289,1.175 -0.866,1.346 -0.588,0.172 -1.175,0.257 -1.785,0.257 -0.384,0 -0.908,-0.053 -1.56,-0.16 -0.652,-0.107 -1.123,-0.31 -1.432,-0.61 0.096,-0.299 0.138,-1.037 0.138,-2.212 0,-1.176 -0.01,-2.566 -0.032,-4.169 -0.032,-1.603 -0.064,-3.313 -0.106,-5.13 -0.043,-1.818 -0.086,-3.528 -0.129,-5.131 -0.043,-1.604 -0.085,-2.982 -0.128,-4.137 -0.043,-1.154 -0.064,-1.902 -0.064,-2.244 -0.257,-0.043 -0.588,-0.054 -1.005,-0.032 -0.427,0.021 -0.823,0.064 -1.208,0.128 -0.374,0.064 -0.705,0.16 -0.972,0.289 -0.278,0.128 -0.417,0.256 -0.417,0.384 -0.129,-0.299 -0.235,-0.609 -0.342,-0.929 -0.107,-0.321 -0.161,-0.674 -0.161,-1.059 0,-0.299 0.171,-0.534 0.503,-0.705 0.342,-0.171 0.727,-0.289 1.176,-0.353 0.438,-0.064 0.887,-0.107 1.357,-0.128 0.46,-0.022 0.791,-0.032 1.005,-0.032l0 -2.117c0,-1.496 0.01,-2.982 0.032,-4.457 0.021,-1.475 0.053,-2.961 0.096,-4.457 0.043,-1.069 0.203,-1.796 0.492,-2.181 0.278,-0.385 1.026,-0.577 2.234,-0.577 0.994,0 1.689,0.406 2.073,1.219 0.396,0.812 0.588,1.646 0.588,2.501 0,0.299 -0.107,0.513 -0.321,0.641l0 9.171c0.514,0 1.08,0 1.7,0 0.62,0 1.218,-0.021 1.796,-0.064 0.577,-0.043 1.122,-0.085 1.635,-0.128 0.513,-0.043 0.898,-0.129 1.154,-0.257zm15.264 -17.251c1.24,0 1.978,0.342 2.213,1.025 0.235,0.685 0.01,1.518 -0.674,2.502 -0.171,-0.171 -0.994,-0.299 -2.469,-0.385 -1.475,-0.086 -3.303,-0.15 -5.483,-0.192 -2.181,-0.043 -4.543,-0.054 -7.087,-0.032 -2.544,0.021 -4.959,0.074 -7.247,0.16 -2.287,0.085 -4.275,0.192 -5.964,0.32 -1.689,0.129 -2.747,0.257 -3.175,0.385 -0.513,-0.299 -0.769,-0.748 -0.769,-1.347 0,-0.427 0.684,-0.791 2.052,-1.09 1.368,-0.299 3.089,-0.534 5.163,-0.705 2.073,-0.171 4.361,-0.299 6.862,-0.385 2.501,-0.086 4.895,-0.149 7.183,-0.193 2.287,-0.042 4.286,-0.063 5.996,-0.063 1.71,0 2.843,0 3.399,0zm14.622 28.41c0.342,-0.085 0.695,-0.064 1.059,0.064 0.363,0.129 0.545,0.364 0.545,0.706 -0.086,0.983 -0.406,2.084 -0.962,3.303 -0.556,1.218 -1.262,2.351 -2.117,3.399 -0.855,1.047 -1.828,1.934 -2.918,2.661 -1.09,0.727 -2.191,1.091 -3.303,1.091 -1.154,0 -2.063,-0.225 -2.725,-0.674 -0.663,-0.449 -1.176,-1.037 -1.54,-1.764 -0.363,-0.726 -0.619,-1.539 -0.769,-2.437 -0.15,-0.898 -0.289,-1.795 -0.417,-2.693 -0.299,0.77 -0.673,1.55 -1.122,2.341 -0.449,0.791 -0.983,1.507 -1.603,2.148 -0.62,0.641 -1.315,1.176 -2.085,1.604 -0.769,0.427 -1.603,0.641 -2.501,0.641 -1.539,0 -2.629,-0.481 -3.271,-1.443 -0.641,-0.962 -0.962,-2.127 -0.962,-3.496 0,-1.197 0.193,-2.629 0.578,-4.296 0.384,-1.668 0.951,-3.271 1.699,-4.81 0.748,-1.54 1.678,-2.854 2.79,-3.945 1.111,-1.09 2.394,-1.635 3.848,-1.635 0.47,0 0.908,0.075 1.314,0.225 0.407,0.149 0.823,0.331 1.251,0.545 0.641,-0.471 1.39,-0.706 2.245,-0.706 0.769,0 1.389,0.118 1.86,0.353 0.47,0.235 0.705,0.802 0.705,1.7 0,1.24 -0.053,2.725 -0.16,4.457 -0.107,1.731 -0.161,3.409 -0.161,5.034 0,1.625 0.129,3.004 0.385,4.137 0.257,1.133 0.77,1.699 1.539,1.699 0.428,0 0.962,-0.267 1.603,-0.801 0.642,-0.535 1.294,-1.219 1.957,-2.053 0.662,-0.833 1.282,-1.721 1.86,-2.661 0.577,-0.941 1.036,-1.839 1.378,-2.694zm-20.009 8.017c0.428,0 0.887,-0.235 1.379,-0.706 0.492,-0.47 0.983,-1.058 1.475,-1.785 0.492,-0.726 0.962,-1.539 1.411,-2.458 0.449,-0.919 0.844,-1.796 1.186,-2.651 0.342,-0.855 0.62,-1.646 0.834,-2.394 0.214,-0.748 0.321,-1.315 0.321,-1.689 0,0 0,-0.182 0,-0.545 0,-0.364 -0.043,-0.759 -0.129,-1.187 -0.085,-0.417 -0.267,-0.801 -0.545,-1.143 -0.278,-0.342 -0.695,-0.513 -1.25,-0.513 -0.471,0 -1.005,0.374 -1.604,1.122 -0.598,0.737 -1.186,1.667 -1.763,2.768 -0.578,1.112 -1.101,2.32 -1.571,3.645 -0.471,1.315 -0.802,2.533 -0.995,3.645 -0.192,1.101 -0.203,2.031 -0.032,2.769 0.171,0.748 0.599,1.122 1.283,1.122zm35.401 -2.309c0.513,0 1.069,-0.342 1.668,-1.026 0.598,-0.684 1.197,-1.496 1.795,-2.437 0.599,-0.941 1.133,-1.924 1.604,-2.95 0.47,-1.026 0.833,-1.903 1.09,-2.63 0.043,0 0.171,0.054 0.385,0.161 0.214,0.107 0.417,0.256 0.609,0.449 0.192,0.192 0.353,0.427 0.481,0.705 0.128,0.278 0.128,0.61 0,0.994 -0.257,0.812 -0.609,1.753 -1.058,2.822 -0.449,1.069 -0.994,2.074 -1.636,3.004 -0.641,0.94 -1.378,1.72 -2.212,2.34 -0.834,0.631 -1.743,0.941 -2.726,0.941 -1.026,0 -1.849,-0.299 -2.469,-0.898 -0.62,-0.598 -1.122,-1.347 -1.507,-2.244 -0.385,-0.898 -0.695,-1.871 -0.93,-2.919 -0.235,-1.047 -0.47,-2.02 -0.705,-2.918 -0.235,-0.897 -0.513,-1.646 -0.834,-2.244 -0.321,-0.599 -0.759,-0.898 -1.315,-0.898 -0.769,0 -1.325,0.385 -1.667,1.154 -0.342,0.77 -0.577,1.7 -0.706,2.79 -0.128,1.09 -0.171,2.213 -0.128,3.367 0.043,1.155 0.064,2.116 0.064,2.886 0,0.556 0.053,1.101 0.16,1.635 0.107,0.535 0.139,1.027 0.097,1.476 -0.043,0.448 -0.235,0.812 -0.578,1.09 -0.342,0.278 -0.94,0.417 -1.795,0.417 -1.026,0 -1.775,-0.46 -2.245,-1.379 -0.47,-0.92 -0.791,-2.01 -0.962,-3.271 -0.171,-1.261 -0.235,-2.544 -0.192,-3.848 0.042,-1.304 0.064,-2.319 0.064,-3.046l0.064 -7.953c0,-0.556 0.235,-0.94 0.705,-1.154 0.471,-0.214 0.941,-0.321 1.411,-0.321 0.77,0 1.336,0.203 1.7,0.609 0.363,0.407 0.609,0.909 0.737,1.508 0.129,0.598 0.171,1.25 0.129,1.955 -0.043,0.706 -0.064,1.337 -0.064,1.893 0.555,-0.984 1.122,-1.657 1.699,-2.021 0.577,-0.363 1.165,-0.545 1.764,-0.545 0.94,0 1.72,0.31 2.34,0.93 0.62,0.631 1.134,1.4 1.54,2.33 0.406,0.919 0.748,1.914 1.026,2.993 0.278,1.069 0.545,2.074 0.802,2.993 0.256,0.93 0.512,1.7 0.769,2.33 0.256,0.62 0.599,0.93 1.026,0.93zm25.782 -8.85c0.171,0 0.481,0.075 0.929,0.224 0.449,0.15 0.653,0.331 0.61,0.545 -0.128,1.539 -0.652,3.111 -1.571,4.714 -0.92,1.603 -2.053,3.057 -3.4,4.361 -1.346,1.304 -2.821,2.384 -4.425,3.239 -1.603,0.855 -3.153,1.283 -4.649,1.283 -2.779,0 -4.874,-0.781 -6.285,-2.331 -1.411,-1.56 -2.117,-3.677 -2.117,-6.37 0,-1.315 0.107,-2.811 0.321,-4.479 0.214,-1.657 0.62,-3.228 1.218,-4.692 0.599,-1.475 1.433,-2.715 2.502,-3.709 1.069,-1.005 2.458,-1.507 4.168,-1.507 1.24,0 2.224,0.331 2.95,0.994 0.727,0.662 1.091,1.635 1.091,2.918 0,0.727 -0.097,1.389 -0.289,1.988 -0.193,0.599 -0.737,0.898 -1.635,0.898 -0.257,0 -0.609,-0.054 -1.059,-0.161 -0.448,-0.106 -0.673,-0.341 -0.673,-0.684 0,-0.31 0.043,-0.673 0.128,-1.111 0.086,-0.428 0.139,-0.845 0.161,-1.229 0.021,-0.396 -0.011,-0.727 -0.096,-1.005 -0.086,-0.289 -0.3,-0.428 -0.642,-0.428 -0.598,0 -1.111,0.503 -1.539,1.508 -0.428,0.993 -0.77,2.169 -1.026,3.505 -0.257,1.347 -0.449,2.704 -0.577,4.062 -0.129,1.368 -0.193,2.384 -0.193,3.068 0,0.641 0.054,1.336 0.161,2.073 0.107,0.749 0.31,1.443 0.609,2.085 0.299,0.63 0.705,1.165 1.218,1.592 0.513,0.428 1.176,0.642 1.989,0.642 1.41,0 2.811,-0.524 4.2,-1.572 1.39,-1.047 2.64,-2.266 3.752,-3.655 1.112,-1.39 2.052,-2.736 2.822,-4.041 0.769,-1.303 1.218,-2.212 1.347,-2.725zm10.261 -6.542c0.342,0 0.737,0.054 1.186,0.161 0.449,0.107 0.717,0.373 0.802,0.801 0.299,1.283 0.588,3.004 0.866,5.163 0.278,2.159 0.523,4.414 0.737,6.766 0.214,2.351 0.396,4.617 0.545,6.798 0.15,2.181 0.225,3.934 0.225,5.259 0,2.009 -0.15,4.147 -0.449,6.413 -0.3,2.266 -0.876,4.361 -1.732,6.285 -0.855,1.924 -2.073,3.517 -3.655,4.778 -1.582,1.261 -3.656,1.892 -6.221,1.892 -1.924,0 -3.314,-0.545 -4.169,-1.635 -0.855,-1.091 -1.282,-2.534 -1.282,-4.329 0,-1.112 0.245,-2.576 0.737,-4.394 0.492,-1.816 1.165,-3.58 2.02,-5.291 0.855,-1.71 1.871,-3.185 3.047,-4.424 1.175,-1.24 2.447,-1.86 3.816,-1.86 0.256,0 0.63,0.074 1.122,0.224 0.491,0.15 0.737,0.396 0.737,0.737 0,0.172 -0.064,0.289 -0.192,0.353 -0.128,0.064 -0.235,0.139 -0.321,0.225 -0.513,0.299 -1.154,0.962 -1.924,1.988 -0.769,1.026 -1.517,2.212 -2.244,3.559 -0.727,1.347 -1.401,2.769 -2.021,4.265 -0.62,1.496 -1.036,2.865 -1.25,4.105 -0.214,1.239 -0.171,2.266 0.128,3.078 0.299,0.812 0.983,1.218 2.052,1.218 0.898,0 1.711,-0.31 2.437,-0.929 0.727,-0.62 1.358,-1.422 1.892,-2.406 0.535,-0.983 0.984,-2.095 1.347,-3.334 0.364,-1.24 0.652,-2.48 0.866,-3.72 0.214,-1.24 0.374,-2.426 0.481,-3.559 0.107,-1.133 0.16,-2.085 0.16,-2.854 0,-2.223 -0.107,-4.425 -0.32,-6.606 -0.214,-2.18 -0.449,-4.361 -0.706,-6.542 -0.214,0.642 -0.459,1.379 -0.737,2.213 -0.278,0.834 -0.631,1.625 -1.059,2.373 -0.427,0.748 -0.94,1.368 -1.539,1.86 -0.598,0.492 -1.325,0.737 -2.18,0.737 -0.984,0 -1.764,-0.245 -2.341,-0.726 -0.577,-0.482 -1.026,-1.08 -1.347,-1.796 -0.321,-0.716 -0.534,-1.486 -0.641,-2.32 -0.107,-0.833 -0.161,-1.635 -0.161,-2.405 0,-0.342 0.033,-1.047 0.097,-2.116 0.064,-1.069 0.16,-2.202 0.288,-3.399 0.128,-1.197 0.278,-2.277 0.449,-3.239 0.171,-0.962 0.342,-1.486 0.513,-1.571 0.342,-0.171 0.727,-0.257 1.155,-0.257 0.812,0 1.325,0.15 1.539,0.449 0.214,0.3 0.278,0.813 0.192,1.539 -0.085,0.941 -0.214,2.16 -0.385,3.656 -0.171,1.497 -0.288,2.961 -0.352,4.393 -0.064,1.432 -0.032,2.662 0.096,3.688 0.128,1.026 0.47,1.539 1.026,1.539 0.812,0 1.464,-0.566 1.956,-1.689 0.492,-1.133 0.898,-2.501 1.219,-4.094 0.32,-1.592 0.588,-3.292 0.801,-5.077 0.214,-1.785 0.449,-3.345 0.706,-4.66 0.085,-0.513 0.32,-0.855 0.705,-1.026 0.385,-0.171 0.812,-0.257 1.283,-0.257zm35.593 -1.475c0.599,0.641 0.877,1.165 0.834,1.571 -0.043,0.407 -0.289,0.727 -0.737,0.962 -0.449,0.236 -1.059,0.396 -1.828,0.481 -0.77,0.086 -1.561,0.129 -2.373,0.129l-2.437 0c0.085,3.677 0.288,7.439 0.609,11.287 0.321,3.848 0.481,7.482 0.481,10.903 0,0.726 -0.289,1.175 -0.866,1.346 -0.588,0.172 -1.176,0.257 -1.785,0.257 -0.384,0 -0.908,-0.053 -1.56,-0.16 -0.652,-0.107 -1.123,-0.31 -1.432,-0.61 0.096,-0.299 0.138,-1.037 0.138,-2.212 0,-1.176 -0.01,-2.566 -0.032,-4.169 -0.032,-1.603 -0.064,-3.313 -0.106,-5.13 -0.043,-1.818 -0.086,-3.528 -0.129,-5.131 -0.043,-1.604 -0.085,-2.982 -0.128,-4.137 -0.043,-1.154 -0.064,-1.902 -0.064,-2.244 -0.257,-0.043 -0.588,-0.054 -1.005,-0.032 -0.427,0.021 -0.823,0.064 -1.208,0.128 -0.374,0.064 -0.705,0.16 -0.972,0.289 -0.279,0.128 -0.417,0.256 -0.417,0.384 -0.128,-0.299 -0.235,-0.609 -0.342,-0.929 -0.107,-0.321 -0.161,-0.674 -0.161,-1.059 0,-0.299 0.171,-0.534 0.503,-0.705 0.342,-0.171 0.727,-0.289 1.175,-0.353 0.439,-0.064 0.888,-0.107 1.358,-0.128 0.46,-0.022 0.791,-0.032 1.005,-0.032l0 -2.117c0,-1.496 0.01,-2.982 0.032,-4.457 0.021,-1.475 0.053,-2.961 0.096,-4.457 0.043,-1.069 0.203,-1.796 0.492,-2.181 0.277,-0.385 1.026,-0.577 2.233,-0.577 0.995,0 1.689,0.406 2.074,1.219 0.396,0.812 0.588,1.646 0.588,2.501 0,0.299 -0.107,0.513 -0.321,0.641l0 9.171c0.514,0 1.08,0 1.7,0 0.62,0 1.218,-0.021 1.796,-0.064 0.577,-0.043 1.122,-0.085 1.635,-0.128 0.513,-0.043 0.898,-0.129 1.154,-0.257zm15.264 -17.251c1.24,0 1.977,0.342 2.213,1.025 0.235,0.685 0.01,1.518 -0.674,2.502 -0.171,-0.171 -0.994,-0.299 -2.469,-0.385 -1.475,-0.086 -3.303,-0.15 -5.483,-0.192 -2.181,-0.043 -4.543,-0.054 -7.087,-0.032 -2.544,0.021 -4.96,0.074 -7.247,0.16 -2.287,0.085 -4.276,0.192 -5.964,0.32 -1.689,0.129 -2.747,0.257 -3.175,0.385 -0.513,-0.299 -0.77,-0.748 -0.77,-1.347 0,-0.427 0.685,-0.791 2.053,-1.09 1.368,-0.299 3.089,-0.534 5.163,-0.705 2.073,-0.171 4.36,-0.299 6.862,-0.385 2.501,-0.086 4.895,-0.149 7.182,-0.193 2.288,-0.042 4.287,-0.063 5.997,-0.063 1.71,0 2.843,0 3.399,0zm14.622 28.41c0.342,-0.085 0.695,-0.064 1.059,0.064 0.363,0.129 0.545,0.364 0.545,0.706 -0.086,0.983 -0.407,2.084 -0.962,3.303 -0.556,1.218 -1.261,2.351 -2.117,3.399 -0.855,1.047 -1.827,1.934 -2.918,2.661 -1.09,0.727 -2.191,1.091 -3.303,1.091 -1.154,0 -2.063,-0.225 -2.725,-0.674 -0.663,-0.449 -1.176,-1.037 -1.539,-1.764 -0.364,-0.726 -0.62,-1.539 -0.77,-2.437 -0.15,-0.898 -0.289,-1.795 -0.417,-2.693 -0.299,0.77 -0.673,1.55 -1.122,2.341 -0.449,0.791 -0.984,1.507 -1.604,2.148 -0.62,0.641 -1.314,1.176 -2.084,1.604 -0.769,0.427 -1.603,0.641 -2.501,0.641 -1.539,0 -2.63,-0.481 -3.271,-1.443 -0.641,-0.962 -0.962,-2.127 -0.962,-3.496 0,-1.197 0.193,-2.629 0.577,-4.296 0.385,-1.668 0.952,-3.271 1.7,-4.81 0.748,-1.54 1.678,-2.854 2.79,-3.945 1.111,-1.09 2.394,-1.635 3.848,-1.635 0.47,0 0.908,0.075 1.314,0.225 0.407,0.149 0.823,0.331 1.251,0.545 0.641,-0.471 1.39,-0.706 2.245,-0.706 0.769,0 1.389,0.118 1.859,0.353 0.471,0.235 0.706,0.802 0.706,1.7 0,1.24 -0.053,2.725 -0.16,4.457 -0.107,1.731 -0.161,3.409 -0.161,5.034 0,1.625 0.129,3.004 0.385,4.137 0.257,1.133 0.77,1.699 1.539,1.699 0.428,0 0.962,-0.267 1.604,-0.801 0.641,-0.535 1.293,-1.219 1.956,-2.053 0.662,-0.833 1.282,-1.721 1.859,-2.661 0.578,-0.941 1.037,-1.839 1.379,-2.694zm-20.009 8.017c0.428,0 0.887,-0.235 1.379,-0.706 0.492,-0.47 0.983,-1.058 1.475,-1.785 0.492,-0.726 0.962,-1.539 1.411,-2.458 0.449,-0.919 0.844,-1.796 1.186,-2.651 0.342,-0.855 0.62,-1.646 0.834,-2.394 0.214,-0.748 0.321,-1.315 0.321,-1.689 0,0 0,-0.182 0,-0.545 0,-0.364 -0.043,-0.759 -0.129,-1.187 -0.085,-0.417 -0.267,-0.801 -0.545,-1.143 -0.278,-0.342 -0.695,-0.513 -1.25,-0.513 -0.471,0 -1.005,0.374 -1.604,1.122 -0.598,0.737 -1.186,1.667 -1.764,2.768 -0.576,1.112 -1.1,2.32 -1.571,3.645 -0.47,1.315 -0.801,2.533 -0.994,3.645 -0.192,1.101 -0.203,2.031 -0.032,2.769 0.171,0.748 0.599,1.122 1.283,1.122zm31.874 -19.24c1.881,0 3.185,0.588 3.912,1.753 0.727,1.176 1.09,2.597 1.09,4.254 0,1.326 -0.214,2.79 -0.641,4.415 -0.428,1.614 -1.058,3.131 -1.892,4.532 -0.834,1.411 -1.86,2.597 -3.078,3.548 -1.219,0.962 -2.619,1.443 -4.201,1.443 -0.556,0 -1.197,-0.107 -1.924,-0.32 0,0.598 0.032,1.176 0.096,1.731 0.064,0.556 0.043,1.048 -0.064,1.475 -0.107,0.428 -0.353,0.759 -0.738,0.994 -0.384,0.235 -1.026,0.353 -1.923,0.353 -0.813,0 -1.486,-0.149 -2.021,-0.449 -0.534,-0.299 -0.801,-0.898 -0.801,-1.795l0 -6.285c0,-5.559 0.096,-11.074 0.288,-16.547 0.192,-5.473 0.289,-10.988 0.289,-16.546 0,-0.941 0.107,-1.603 0.32,-1.988 0.214,-0.385 0.877,-0.577 1.988,-0.577 0.599,0 1.166,0.107 1.7,0.32 0.535,0.214 0.802,0.684 0.802,1.422l0 21.217c0.855,-0.94 1.892,-1.667 3.11,-2.18 1.219,-0.513 2.448,-0.77 3.688,-0.77zm-4.618 17.893c0.898,0 1.732,-0.524 2.501,-1.571 0.77,-1.048 1.443,-2.277 2.021,-3.688 0.577,-1.411 1.026,-2.821 1.346,-4.233 0.321,-1.41 0.481,-2.48 0.481,-3.206 0,-0.3 -0.032,-0.652 -0.096,-1.058 -0.064,-0.407 -0.171,-0.802 -0.32,-1.187 -0.15,-0.385 -0.353,-0.705 -0.61,-0.962 -0.256,-0.256 -0.577,-0.384 -0.962,-0.384 -1.026,0 -1.945,0.459 -2.757,1.378 -0.813,0.92 -1.486,2.01 -2.021,3.271 -0.534,1.261 -0.951,2.555 -1.25,3.88 -0.3,1.325 -0.449,2.394 -0.449,3.207l0 2.116c0,0.428 0.235,0.941 0.705,1.539 0.471,0.599 0.941,0.898 1.411,0.898z"/>
  <g id="_1191901188304">
   <path class="fil0" d="M33.209 3.152l1.055 9.099 -2.73 0.223 -2.565 -11.766 0.544 -0.15c0.849,-0.233 1.723,-0.385 2.616,-0.471 0.887,-0.085 1.796,-0.105 2.721,-0.072l0.576 0.02 0 5.985 1.023 0 0 -5.985 0.576 -0.02c0.925,-0.033 1.834,-0.013 2.722,0.072 0.892,0.086 1.766,0.238 2.616,0.471l0.478 0.131 0.518 0.063c0.872,0.105 1.74,0.295 2.6,0.553 0.85,0.256 1.7,0.582 2.55,0.963l0.525 0.237 -2.263 5.542 0.948 0.386 2.263 -5.543 0.538 0.198c0.861,0.317 1.695,0.68 2.493,1.098 0.799,0.42 1.552,0.891 2.247,1.426l0.445 0.342 -6.823 9.924 -2.441 -1.237 4.414 -8.026 1.042 0.572 -3.824 6.95 0.42 0.212 5.59 -8.13c-0.513,-0.36 -1.054,-0.686 -1.619,-0.982 -0.575,-0.302 -1.183,-0.577 -1.818,-0.828l-2.276 5.574 -3.149 -1.285 2.276 -5.576c-0.622,-0.26 -1.247,-0.488 -1.877,-0.678 -0.613,-0.184 -1.228,-0.33 -1.844,-0.432l-1.697 9.718 0.448 0.141 2.132 -7.637 1.144 0.316 -2.464 8.825 -2.61 -0.824 1.622 -9.293 -2.01 9.216 -2.729 -0.223 1.054 -9.099 1.181 0.135 -0.913 7.879 0.467 0.038 2.102 -9.64c-0.607,-0.138 -1.231,-0.235 -1.868,-0.296 -0.652,-0.062 -1.319,-0.087 -1.996,-0.081l0 6.023 -3.403 0 0 -6.023c-0.677,-0.006 -1.343,0.019 -1.995,0.081 -0.638,0.061 -1.261,0.158 -1.869,0.296l2.102 9.641 0.467 -0.039 -0.913 -7.879 1.181 -0.135zm23.861 7.572l-5.653 7.205 -2.096 -1.763 6.457 -10.165 0.49 0.277c0.764,0.429 1.492,0.936 2.19,1.507 0.694,0.567 1.354,1.193 1.988,1.866l0.392 0.417 -4.213 4.254 0.728 0.722 4.214 -4.254 0.42 0.388c0.676,0.624 1.309,1.279 1.885,1.97 0.574,0.69 1.088,1.413 1.527,2.176l0.281 0.487 -10.103 6.553 -1.78 -2.076 7.152 -5.723 0.739 0.925 -6.193 4.956 0.307 0.358 8.279 -5.37c-0.335,-0.527 -0.71,-1.035 -1.12,-1.528 -0.417,-0.5 -0.874,-0.986 -1.363,-1.461l-4.237 4.278 -2.414 -2.393 4.236 -4.278c-0.477,-0.482 -0.969,-0.934 -1.474,-1.347 -0.494,-0.404 -1.006,-0.774 -1.538,-1.104l-5.291 8.329 0.358 0.301 4.898 -6.242 0.934 0.735zm8.045 10.016l-7.983 4.491 -1.261 -2.43 9.858 -6.917 0.348 0.444c0.544,0.694 1.023,1.441 1.446,2.229 0.422,0.785 0.792,1.617 1.121,2.485l0.203 0.537 -5.52 2.315 0.395 0.943 5.521 -2.315 0.241 0.521c0.387,0.841 0.721,1.688 0.986,2.54 0.266,0.855 0.463,1.72 0.577,2.595l0.073 0.559 -11.844 2.184 -0.849 -2.6 8.799 -2.548 0.33 1.139 -7.619 2.206 0.146 0.448 9.703 -1.79c-0.107,-0.613 -0.259,-1.226 -0.45,-1.839 -0.194,-0.626 -0.429,-1.25 -0.697,-1.872l-5.554 2.33 -1.316 -3.138 5.554 -2.329c-0.256,-0.626 -0.536,-1.231 -0.846,-1.808 -0.304,-0.566 -0.635,-1.104 -0.996,-1.611l-8.077 5.667 0.216 0.417 6.914 -3.89 0.581 1.037zm3.594 12.334l-9.094 1.091 -0.234 -2.727 11.757 -2.614 0.151 0.543c0.235,0.846 0.392,1.719 0.481,2.614 0.088,0.884 0.111,1.793 0.083,2.72l-0.017 0.575 -5.988 0.024 0.004 1.027 5.988 -0.024 0.022 0.574c0.036,0.923 0.02,1.832 -0.062,2.721 -0.082,0.901 -0.231,1.776 -0.458,2.617l-0.147 0.546 -11.778 -2.518 0.212 -2.73 9.103 1.017 -0.131 1.181 -7.883 -0.88 -0.036 0.467 9.647 2.063c0.138,-0.613 0.233,-1.237 0.29,-1.87 0.06,-0.652 0.082,-1.319 0.073,-1.998l-6.02 0.024 -0.014 -3.398 6.02 -0.024c0.004,-0.678 -0.024,-1.344 -0.089,-1.998 -0.063,-0.637 -0.163,-1.261 -0.305,-1.869l-9.63 2.141 0.04 0.468 7.876 -0.944 0.139 1.181zm-1.401 12.769l-8.818 -2.475 0.828 -2.61 11.861 2.088 -0.068 0.558c-0.107,0.876 -0.297,1.743 -0.557,2.602 -0.256,0.849 -0.584,1.698 -0.966,2.547l-0.236 0.523 -5.541 -2.271 -0.389 0.949 5.541 2.271 -0.198 0.536c-0.321,0.867 -0.684,1.702 -1.101,2.494 -0.418,0.794 -0.891,1.545 -1.429,2.243l-0.343 0.445 -9.915 -6.837 1.24 -2.44 8.02 4.426 -0.572 1.041 -6.945 -3.832 -0.213 0.418 8.122 5.601c0.359,-0.51 0.685,-1.051 0.984,-1.618 0.304,-0.578 0.58,-1.186 0.831,-1.817l-5.57 -2.283 1.289 -3.145 5.57 2.283c0.262,-0.623 0.492,-1.249 0.682,-1.879 0.185,-0.613 0.332,-1.227 0.435,-1.842l-9.717 -1.71 -0.142 0.446 7.637 2.144 -0.32 1.144zm-6.187 11.26l-7.198 -5.664 1.764 -2.092 10.155 6.47 -0.276 0.488c-0.438,0.774 -0.944,1.502 -1.508,2.19 -0.563,0.687 -1.191,1.346 -1.869,1.983l-0.418 0.393 -4.248 -4.22 -0.723 0.728 4.247 4.219 -0.389 0.42c-0.631,0.681 -1.286,1.313 -1.971,1.882 -0.697,0.579 -1.421,1.092 -2.178,1.526l-0.486 0.28 -6.541 -10.114 2.08 -1.777 5.714 7.16 -0.93 0.739 -4.947 -6.199 -0.357 0.305 5.357 8.284c0.532,-0.335 1.041,-0.709 1.53,-1.115 0.506,-0.42 0.993,-0.876 1.465,-1.361l-4.273 -4.243 2.396 -2.412 4.271 4.242c0.481,-0.474 0.933,-0.964 1.349,-1.473 0.41,-0.5 0.781,-1.011 1.11,-1.536l-8.323 -5.303 -0.303 0.359 6.235 4.906 -0.735 0.935zm-10.027 8.03l-4.481 -7.989 2.431 -1.257 6.904 9.868 -0.443 0.346c-0.693,0.541 -1.441,1.019 -2.233,1.443 -0.79,0.422 -1.622,0.791 -2.485,1.117l-0.536 0.203 -2.309 -5.525 -0.945 0.395 2.308 5.524 -0.522 0.24c-0.842,0.387 -1.689,0.72 -2.542,0.983 -0.855,0.265 -1.721,0.461 -2.596,0.574l-0.556 0.072 -2.168 -11.847 2.601 -0.845 2.535 8.804 -1.139 0.325 -2.195 -7.62 -0.449 0.145 1.777 9.706c0.614,-0.107 1.228,-0.259 1.842,-0.448 0.625,-0.193 1.249,-0.427 1.871,-0.694l-2.321 -5.557 3.138 -1.311 2.321 5.556c0.63,-0.255 1.236,-0.535 1.811,-0.844 0.565,-0.302 1.103,-0.632 1.612,-0.995l-5.657 -8.084 -0.417 0.216 3.879 6.918 -1.036 0.581zm-12.339 3.579l-1.079 -9.097 2.728 -0.231 2.598 11.761 -0.543 0.15c-0.847,0.235 -1.72,0.39 -2.615,0.478 -0.886,0.087 -1.796,0.109 -2.723,0.079l-0.572 -0.018 -0.016 -5.988 -1.028 0.003 0.017 5.988 -0.574 0.021c-0.924,0.035 -1.832,0.018 -2.721,-0.065 -0.903,-0.084 -1.779,-0.234 -2.62,-0.462l-0.543 -0.147 2.535 -11.776 2.729 0.216 -1.03 9.101 -1.181 -0.131 0.892 -7.882 -0.468 -0.037 -2.075 9.644c0.613,0.138 1.237,0.235 1.868,0.293 0.653,0.061 1.32,0.084 1.999,0.075l-0.016 -6.02 3.398 -0.009 0.016 6.02c0.677,0.005 1.344,-0.022 1.997,-0.086 0.638,-0.063 1.262,-0.162 1.87,-0.302l-2.128 -9.634 -0.468 0.04 0.934 7.876 -1.181 0.14zm-12.768 -1.42l2.488 -8.815 2.608 0.832 -2.103 11.858 -0.56 -0.069c-0.864,-0.106 -1.731,-0.299 -2.599,-0.562 -0.861,-0.261 -1.709,-0.589 -2.546,-0.968l-0.523 -0.237 2.279 -5.537 -0.949 -0.391 -2.278 5.537 -0.538 -0.2c-0.872,-0.324 -1.707,-0.688 -2.491,-1.102 -0.794,-0.419 -1.544,-0.893 -2.24,-1.431l-0.446 -0.344 6.851 -9.906 2.436 1.243 -4.437 8.013 -1.036 -0.571 3.842 -6.94 -0.421 -0.215 -5.612 8.114c0.51,0.36 1.051,0.687 1.617,0.987 0.582,0.307 1.189,0.584 1.816,0.835l2.291 -5.568 3.144 1.293 -2.291 5.568c0.628,0.265 1.254,0.497 1.876,0.685 0.608,0.185 1.222,0.332 1.842,0.436l1.724 -9.715 -0.446 -0.143 -2.154 7.634 -1.144 -0.321zm-11.249 -6.202l5.675 -7.19 2.087 1.765 -6.485 10.149 -0.489 -0.278c-0.763,-0.432 -1.49,-0.942 -2.186,-1.513 -0.686,-0.564 -1.345,-1.193 -1.98,-1.872l-0.392 -0.418 4.224 -4.241 -0.727 -0.724 -4.224 4.243 -0.421 -0.39c-0.681,-0.633 -1.312,-1.289 -1.879,-1.973 -0.574,-0.693 -1.085,-1.418 -1.522,-2.18l-0.28 -0.489 10.123 -6.527 1.775 2.084 -7.167 5.703 -0.739 -0.93 6.206 -4.939 -0.305 -0.357 -8.291 5.346c0.334,0.528 0.708,1.038 1.116,1.531 0.419,0.505 0.873,0.994 1.357,1.466l4.248 -4.266 2.409 2.399 -4.25 4.266c0.474,0.482 0.964,0.934 1.472,1.352 0.494,0.405 1.005,0.777 1.536,1.109l5.313 -8.313 -0.36 -0.305 -4.914 6.227 -0.93 -0.735zm-8.017 -10.038l7.995 -4.469 1.253 2.432 -9.877 6.89 -0.346 -0.443c-0.541,-0.694 -1.017,-1.443 -1.44,-2.235 -0.422,-0.791 -0.79,-1.623 -1.114,-2.487l-0.202 -0.537 5.527 -2.3 -0.394 -0.946 -5.526 2.3 -0.239 -0.522c-0.386,-0.843 -0.718,-1.69 -0.98,-2.543 -0.264,-0.856 -0.459,-1.722 -0.57,-2.596l-0.071 -0.557 11.848 -2.152 0.843 2.604 -8.807 2.523 -0.325 -1.144 7.624 -2.184 -0.145 -0.447 -9.708 1.763c0.106,0.614 0.256,1.229 0.445,1.842 0.193,0.626 0.426,1.251 0.692,1.873l5.56 -2.314 1.307 3.14 -5.56 2.313c0.255,0.631 0.534,1.237 0.841,1.812 0.302,0.566 0.632,1.105 0.994,1.614l8.092 -5.645 -0.216 -0.419 -6.925 3.87 -0.576 -1.036zm-3.562 -12.344l9.097 -1.066 0.227 2.729 -11.763 2.582 -0.15 -0.544c-0.234,-0.847 -0.388,-1.721 -0.475,-2.617 -0.086,-0.887 -0.107,-1.796 -0.076,-2.722l0.019 -0.573 5.988 -0.008 -0.002 -1.027 -5.987 0.008 -0.021 -0.572c-0.034,-0.926 -0.015,-1.836 0.068,-2.724 0.085,-0.892 0.236,-1.767 0.468,-2.616l0.149 -0.544 11.77 2.55 -0.219 2.729 -9.102 -1.042 0.135 -1.181 7.88 0.902 0.037 -0.467 -9.642 -2.089c-0.138,0.608 -0.234,1.232 -0.295,1.87 -0.061,0.653 -0.085,1.319 -0.077,1.997l6.02 -0.007 0.005 3.397 -6.021 0.008c-0.006,0.678 0.02,1.345 0.084,1.999 0.062,0.636 0.16,1.259 0.299,1.867l9.636 -2.115 -0.038 -0.467 -7.879 0.924 -0.135 -1.181zm1.434 -12.766l8.814 2.5 -0.836 2.608 -11.856 -2.121 0.07 -0.558c0.107,-0.865 0.301,-1.732 0.566,-2.599 0.262,-0.861 0.591,-1.709 0.971,-2.545l0.238 -0.523 5.534 2.286 0.392 -0.948 -5.533 -2.285 0.2 -0.537c0.324,-0.873 0.69,-1.706 1.105,-2.49 0.42,-0.793 0.895,-1.543 1.434,-2.238l0.345 -0.446 9.896 6.863 -1.247 2.435 -8.008 -4.447 0.577 -1.037 6.935 3.852 0.214 -0.419 -8.108 -5.623c-0.36,0.509 -0.689,1.049 -0.988,1.614 -0.308,0.582 -0.586,1.189 -0.838,1.816l5.565 2.298 -1.297 3.142 -5.564 -2.298c-0.268,0.628 -0.5,1.253 -0.689,1.875 -0.185,0.607 -0.333,1.221 -0.438,1.841l9.712 1.737 0.143 -0.446 -7.63 -2.164 0.321 -1.143zm6.218 -11.241l7.184 5.684 -1.77 2.087 -10.139 -6.499 0.278 -0.489c0.434,-0.763 0.944,-1.489 1.516,-2.184 0.571,-0.693 1.2,-1.35 1.874,-1.98l0.418 -0.39 4.237 4.23 0.725 -0.725 -4.237 -4.231 0.39 -0.42c0.634,-0.68 1.291,-1.31 1.976,-1.876 0.69,-0.57 1.416,-1.081 2.184,-1.519l0.488 -0.278 6.513 10.13 -2.086 1.773 -5.693 -7.175 0.93 -0.739 4.93 6.213 0.358 -0.304 -5.335 -8.299c-0.527,0.331 -1.036,0.705 -1.531,1.114 -0.507,0.419 -0.996,0.873 -1.469,1.355l4.26 4.255 -2.402 2.405 -4.26 -4.255c-0.486,0.477 -0.94,0.966 -1.354,1.469 -0.406,0.494 -0.779,1.004 -1.111,1.534l8.306 5.324 0.305 -0.359 -6.22 -4.921 0.735 -0.93zm10.049 -8.004l4.458 8.001 -2.435 1.25 -6.876 -9.886 0.445 -0.347c0.694,-0.54 1.443,-1.015 2.236,-1.437 0.779,-0.414 1.613,-0.78 2.491,-1.108l0.536 -0.201 2.293 5.529 0.946 -0.392 -2.293 -5.53 0.522 -0.238c0.84,-0.383 1.688,-0.713 2.544,-0.976 0.857,-0.263 1.723,-0.457 2.597,-0.567l0.558 -0.071 2.136 11.852 -2.605 0.839 -2.511 -8.809 1.143 -0.325 2.175 7.627 0.447 -0.144 -1.75 -9.711c-0.615,0.105 -1.229,0.255 -1.842,0.443 -0.626,0.191 -1.251,0.423 -1.875,0.689l2.307 5.564 -3.142 1.302 -2.306 -5.563c-0.622,0.251 -1.228,0.53 -1.812,0.841 -0.565,0.3 -1.104,0.629 -1.613,0.99l5.634 8.099 0.417 -0.214 -3.861 -6.93 1.036 -0.577z"/>
   <path class="fil1" d="M37.554 43.769c-0.498,-1.501 0.88,-5.686 1.477,-6.927 1.131,1.027 1.285,1.802 0.648,3.784 -0.233,0.722 -0.419,1.211 -0.772,1.889 -0.676,1.295 -0.697,1.307 -1.353,1.254zm-5.781 -8.581c0,0 3.413,-10.613 5.667,-9.956 0,0 1.44,0.596 -5.667,9.956zm7.809 0.016c0,0 3.413,-10.613 5.668,-9.956 0,0 1.44,0.595 -5.668,9.956zm24.484 8.999c-0.034,0.143 -0.062,0.251 -0.099,0.393 -1.824,-0.258 -4.583,-0.8 -5.478,-1.228 -3.077,-1.475 -9.187,-8.967 -11.591,-8.678 -2.124,1.068 -3.023,8.394 -5.611,3.853 -0.657,2.025 -1.858,8.007 -4.729,6.689 -1.749,-0.934 -0.575,-3.817 -0.593,-5.755 -1.342,1.34 -2.765,-0.528 -2.633,-1.049 -0.32,2.605 -1.705,6.679 -3.825,6.953 -3.242,0.419 -1.154,-6.303 -0.837,-8.131 -1.012,0.474 -2.069,1.331 -3.134,1.999 -4.763,2.992 -7.434,3.023 -12.676,4.405 -1.175,-0.411 -0.984,-1.388 -0.399,-0.705 6.203,-0.72 9.766,-1.93 14.778,-5.407 0.84,-0.582 1.502,-1.102 1.679,-1.388 0.351,-0.57 1.069,-2.976 1.381,-3.764 1.006,-2.538 4.94,-9.876 7.437,-8.217 2.563,1.733 -5.139,10.777 -5.888,11.834 0.347,0.591 1.034,0.885 1.488,1.551 0.464,0.682 0.854,1.392 1.547,1.725 1.579,-0.569 2.653,-5.662 4.259,-8.928 1.06,-2.157 3.962,-7.124 6.647,-6.204 1.753,3.151 -5.127,9.989 -6.139,12.098 1.43,0.757 2.118,2.686 3.243,3.06 1.355,-1.022 2.285,-4.867 3.719,-5.347 2.247,-0.755 9.505,7.991 11.969,9.039 2.615,1.111 3.842,1.171 5.485,1.202zm-33.061 -7.309c2.806,1.576 -0.579,6.615 -0.729,6.755 -1.993,1.849 0.729,-6.75 0.729,-6.755z"/>
  </g>
  <path class="fil0" d="M186.392 62.994l2.498 5.859 -0.575 0 -0.837 -1.926 -2.321 0 -0.832 1.926 -0.596 0 2.528 -5.859 0.135 0zm-0.068 1.229l-0.921 2.133 1.839 0 -0.918 -2.133zm6.44 0.767l-0.328 0.37c-0.272,-0.288 -0.539,-0.433 -0.799,-0.433 -0.165,0 -0.307,0.061 -0.425,0.18 -0.118,0.118 -0.178,0.259 -0.178,0.418 0,0.14 0.049,0.274 0.145,0.401 0.098,0.13 0.302,0.283 0.613,0.458 0.378,0.214 0.636,0.422 0.772,0.62 0.133,0.202 0.2,0.429 0.2,0.68 0,0.357 -0.114,0.657 -0.343,0.905 -0.229,0.246 -0.514,0.37 -0.858,0.37 -0.228,0 -0.446,-0.055 -0.655,-0.164 -0.207,-0.108 -0.379,-0.258 -0.515,-0.45l0.32 -0.398c0.26,0.321 0.537,0.481 0.829,0.481 0.204,0 0.378,-0.072 0.522,-0.215 0.144,-0.143 0.216,-0.311 0.216,-0.504 0,-0.159 -0.048,-0.301 -0.142,-0.426 -0.096,-0.122 -0.31,-0.276 -0.643,-0.461 -0.358,-0.201 -0.601,-0.4 -0.73,-0.596 -0.129,-0.195 -0.194,-0.418 -0.194,-0.67 0,-0.328 0.104,-0.6 0.309,-0.818 0.206,-0.216 0.466,-0.324 0.781,-0.324 0.365,0 0.733,0.191 1.103,0.576zm4.198 -1.996l0.537 0 0 3.538c0,0.419 0.007,0.682 0.022,0.785 0.026,0.231 0.088,0.425 0.185,0.579 0.097,0.155 0.246,0.286 0.448,0.391 0.201,0.104 0.404,0.158 0.609,0.158 0.176,0 0.347,-0.041 0.51,-0.124 0.161,-0.082 0.298,-0.196 0.407,-0.343 0.11,-0.145 0.189,-0.322 0.24,-0.529 0.036,-0.149 0.055,-0.454 0.055,-0.917l0 -3.538 0.537 0 0 3.536c0,0.523 -0.047,0.946 -0.14,1.269 -0.094,0.322 -0.282,0.603 -0.561,0.841 -0.281,0.24 -0.62,0.36 -1.02,0.36 -0.432,0 -0.803,-0.113 -1.111,-0.339 -0.309,-0.226 -0.516,-0.524 -0.62,-0.896 -0.066,-0.229 -0.098,-0.64 -0.098,-1.235l0 -3.536zm5.911 1.526l0.507 0 0 0.776c0.206,-0.296 0.432,-0.518 0.679,-0.664 0.249,-0.145 0.518,-0.218 0.811,-0.218 0.297,0 0.56,0.081 0.79,0.245 0.23,0.165 0.4,0.387 0.51,0.666 0.109,0.277 0.164,0.711 0.164,1.3l0 2.228 -0.507 0 0 -2.065c0,-0.498 -0.02,-0.831 -0.059,-0.998 -0.062,-0.286 -0.176,-0.501 -0.344,-0.646 -0.168,-0.144 -0.386,-0.217 -0.656,-0.217 -0.31,0 -0.587,0.112 -0.831,0.335 -0.245,0.222 -0.406,0.498 -0.483,0.827 -0.049,0.215 -0.074,0.606 -0.074,1.176l0 1.588 -0.507 0 0 -4.333zm5.858 -1.779c0.116,0 0.214,0.045 0.296,0.136 0.082,0.089 0.123,0.2 0.123,0.326 0,0.125 -0.041,0.234 -0.123,0.324 -0.082,0.091 -0.18,0.136 -0.296,0.136 -0.114,0 -0.211,-0.045 -0.293,-0.136 -0.082,-0.09 -0.123,-0.199 -0.123,-0.324 0,-0.126 0.041,-0.237 0.123,-0.326 0.082,-0.091 0.179,-0.136 0.293,-0.136zm-0.252 1.779l0.507 0 0 4.333 -0.507 0 0 -4.333zm6.645 0l0 5.916 -0.507 0 0 -2.334c-0.214,0.284 -0.453,0.498 -0.719,0.642 -0.265,0.143 -0.556,0.215 -0.87,0.215 -0.56,0 -1.038,-0.222 -1.435,-0.665 -0.396,-0.445 -0.594,-0.984 -0.594,-1.62 0,-0.622 0.2,-1.155 0.601,-1.597 0.399,-0.442 0.88,-0.663 1.443,-0.663 0.324,0 0.618,0.074 0.881,0.224 0.263,0.15 0.494,0.375 0.693,0.678l0 -0.796 0.507 0zm-2.041 0.432c-0.284,0 -0.546,0.076 -0.785,0.229 -0.24,0.151 -0.43,0.364 -0.572,0.639 -0.141,0.274 -0.212,0.566 -0.212,0.873 0,0.303 0.071,0.594 0.214,0.872 0.143,0.277 0.334,0.493 0.575,0.647 0.241,0.155 0.5,0.233 0.776,0.233 0.277,0 0.542,-0.077 0.79,-0.23 0.25,-0.154 0.442,-0.361 0.576,-0.623 0.134,-0.261 0.201,-0.557 0.201,-0.884 0,-0.499 -0.15,-0.917 -0.452,-1.253 -0.301,-0.336 -0.671,-0.503 -1.111,-0.503zm4.248 -0.432l0.507 0 0 2.022c0,0.493 0.025,0.832 0.073,1.018 0.073,0.266 0.213,0.475 0.418,0.629 0.205,0.154 0.451,0.231 0.736,0.231 0.285,0 0.526,-0.075 0.725,-0.224 0.197,-0.151 0.335,-0.347 0.41,-0.592 0.051,-0.167 0.077,-0.521 0.077,-1.062l0 -2.022 0.522 0 0 2.124c0,0.597 -0.063,1.046 -0.191,1.348 -0.127,0.303 -0.32,0.54 -0.576,0.71 -0.256,0.171 -0.576,0.257 -0.963,0.257 -0.387,0 -0.709,-0.086 -0.968,-0.257 -0.258,-0.17 -0.452,-0.41 -0.579,-0.716 -0.128,-0.306 -0.191,-0.767 -0.191,-1.382l0 -2.084zm9.077 2.896l0.43 0.248c-0.142,0.301 -0.305,0.544 -0.49,0.729 -0.185,0.184 -0.393,0.325 -0.624,0.421 -0.233,0.097 -0.494,0.145 -0.786,0.145 -0.649,0 -1.155,-0.232 -1.52,-0.694 -0.366,-0.462 -0.548,-0.985 -0.548,-1.567 0,-0.548 0.155,-1.037 0.465,-1.466 0.391,-0.545 0.917,-0.818 1.574,-0.818 0.678,0 1.22,0.28 1.624,0.839 0.287,0.394 0.434,0.886 0.439,1.478l-3.58 0c0.01,0.502 0.158,0.913 0.442,1.232 0.286,0.321 0.639,0.482 1.058,0.482 0.203,0 0.4,-0.039 0.592,-0.115 0.191,-0.076 0.354,-0.176 0.488,-0.303 0.135,-0.126 0.28,-0.329 0.436,-0.611zm0.004 -1.167c-0.068,-0.297 -0.167,-0.534 -0.298,-0.712 -0.132,-0.178 -0.305,-0.321 -0.52,-0.43 -0.215,-0.109 -0.441,-0.163 -0.677,-0.163 -0.392,0 -0.727,0.136 -1.008,0.409 -0.207,0.2 -0.361,0.498 -0.466,0.896l2.969 0zm6.97 -3.255l2.499 5.859 -0.576 0 -0.837 -1.926 -2.321 0 -0.831 1.926 -0.597 0 2.529 -5.859 0.134 0zm-0.067 1.229l-0.921 2.133 1.838 0 -0.917 -2.133zm6.44 0.767l-0.329 0.37c-0.272,-0.288 -0.539,-0.433 -0.799,-0.433 -0.166,0 -0.307,0.061 -0.425,0.18 -0.118,0.118 -0.178,0.259 -0.178,0.418 0,0.14 0.048,0.274 0.146,0.401 0.096,0.13 0.302,0.283 0.612,0.458 0.378,0.214 0.635,0.422 0.772,0.62 0.133,0.202 0.201,0.429 0.201,0.68 0,0.357 -0.115,0.657 -0.344,0.905 -0.228,0.246 -0.514,0.37 -0.857,0.37 -0.229,0 -0.446,-0.055 -0.656,-0.164 -0.207,-0.108 -0.379,-0.258 -0.516,-0.45l0.321 -0.398c0.26,0.321 0.537,0.481 0.829,0.481 0.204,0 0.378,-0.072 0.522,-0.215 0.143,-0.143 0.216,-0.311 0.216,-0.504 0,-0.159 -0.048,-0.301 -0.142,-0.426 -0.096,-0.122 -0.31,-0.276 -0.643,-0.461 -0.358,-0.201 -0.601,-0.4 -0.729,-0.596 -0.13,-0.195 -0.194,-0.418 -0.194,-0.67 0,-0.328 0.103,-0.6 0.308,-0.818 0.206,-0.216 0.466,-0.324 0.78,-0.324 0.366,0 0.734,0.191 1.105,0.576zm3.756 -1.996l0.613 0 1.385 2.446 1.362 -2.446 0.609 0 -1.701 3.057 0 2.802 -0.537 0 0 -2.802 -1.731 -3.057zm7.761 1.42c0.61,0 1.117,0.24 1.519,0.723 0.365,0.439 0.548,0.96 0.548,1.561 0,0.604 -0.193,1.132 -0.579,1.583 -0.386,0.452 -0.883,0.678 -1.488,0.678 -0.609,0 -1.108,-0.226 -1.493,-0.678 -0.387,-0.451 -0.58,-0.979 -0.58,-1.583 0,-0.598 0.183,-1.118 0.548,-1.557 0.402,-0.485 0.911,-0.727 1.525,-0.727zm-0.003 0.546c-0.424,0 -0.787,0.17 -1.091,0.511 -0.305,0.342 -0.457,0.755 -0.457,1.24 0,0.311 0.07,0.602 0.208,0.873 0.139,0.269 0.327,0.477 0.563,0.624 0.235,0.147 0.495,0.22 0.777,0.22 0.282,0 0.542,-0.073 0.777,-0.22 0.236,-0.147 0.424,-0.355 0.563,-0.624 0.138,-0.271 0.208,-0.562 0.208,-0.873 0,-0.485 -0.153,-0.898 -0.459,-1.24 -0.304,-0.341 -0.668,-0.511 -1.089,-0.511zm4.073 -0.44l0.507 0 0 2.022c0,0.493 0.025,0.832 0.074,1.018 0.072,0.266 0.212,0.475 0.417,0.629 0.206,0.154 0.452,0.231 0.736,0.231 0.285,0 0.526,-0.075 0.725,-0.224 0.198,-0.151 0.336,-0.347 0.41,-0.592 0.051,-0.167 0.077,-0.521 0.077,-1.062l0 -2.022 0.522 0 0 2.124c0,0.597 -0.063,1.046 -0.191,1.348 -0.127,0.303 -0.319,0.54 -0.576,0.71 -0.256,0.171 -0.576,0.257 -0.963,0.257 -0.387,0 -0.708,-0.086 -0.967,-0.257 -0.259,-0.17 -0.453,-0.41 -0.579,-0.716 -0.128,-0.306 -0.192,-0.767 -0.192,-1.382l0 -2.084z"/>
 </g>
</svg>
